<?xml version="1.0" encoding="UTF-8"?>
<!DOCTYPE svg PUBLIC "-//W3C//DTD SVG 1.1//EN" "http://www.w3.org/Graphics/SVG/1.1/DTD/svg11.dtd">
<!-- Creator: CorelDRAW 2018 -->
<svg xmlns="http://www.w3.org/2000/svg" xml:space="preserve" width="420mm" height="297mm" version="1.1" style="shape-rendering:geometricPrecision; text-rendering:geometricPrecision; image-rendering:optimizeQuality; fill-rule:evenodd; clip-rule:evenodd"
viewBox="0 0 42000 29700"
 xmlns:xlink="http://www.w3.org/1999/xlink">
 <defs>
  <style type="text/css">
   <![CDATA[
    .fil1 {fill:#FEFEFE}
    .fil0 {fill:url(#id0)}
   ]]>
  </style>
  <linearGradient id="id0" gradientUnits="userSpaceOnUse" x1="17640.14" y1="11550.83" x2="28309.69" y2="11550.79">
   <stop offset="0" style="stop-opacity:1; stop-color:#FADB9A"/>
   <stop offset="0.309804" style="stop-opacity:1; stop-color:#EB5D98"/>
   <stop offset="0.611765" style="stop-opacity:1; stop-color:#7C4684"/>
   <stop offset="1" style="stop-opacity:1; stop-color:#255E86"/>
  </linearGradient>
 </defs>
 <g id="Layer_x0020_1">
  <metadata id="CorelCorpID_0Corel-Layer"/>
  <path class="fil0" d="M23616.42 12068.77c-7.23,-118.3 -412.86,-1131.25 -482.48,-1373.06 -659.86,-2291.27 -1678.14,-2074.43 -2830.71,-3283.19 1539.88,-467.2 3676.84,344.04 4811.01,1721.28 1645.94,1998.69 1295.34,4228.03 389.73,5813.49 -349.36,611.6 685.19,1449.47 1156.57,1463.74 559.33,16.96 748.92,-546.78 938.76,-916.75 990.89,-1931 1006.22,-4355.42 -33.62,-6410.71 -1352.25,-2672.88 -4271.19,-4096.93 -6913.39,-3844.21 -583.7,55.84 -2232.31,338.81 -2720.36,837.23 -442.92,452.25 -325.48,1804.08 -19.62,2574.27 159.27,401.14 1624.55,2786.78 1939.35,2777.59 582.95,-17.07 -144.11,-990.36 -165.51,-1255.13 -34.26,-422.55 367.3,-985.79 858.7,-919.58 258.42,34.82 943.13,408.27 987.27,801.25 57.19,509.4 -328.13,808.36 110.19,1132.26 192.95,-313.97 131.03,-460.63 284.95,-736.45 130.65,597.04 -411.94,1125.52 195.72,1441.15 199.86,-158.59 89.13,-213.41 230.66,-458.72 44.56,309.74 -35.12,565.68 84.03,754.14 383.23,606.19 472.27,-445.56 480.16,-491.87 217.81,313.47 413.27,500.16 698.59,373.27z"/>
  <path class="fil1" d="M16569.06 4649.45c448.36,1032.78 867.51,1498.84 252.6,2944.71 -648.37,1524.79 -1303.08,1779.53 -873.57,2188.77 429.87,409.17 1275.28,576.99 1275.28,576.99 0,0 -17.45,268.34 -200.02,523.5 -182.12,254.78 -152.2,628.78 210.75,849.05 262.77,159.43 315.01,188.06 324.08,191.32 -4.43,3.96 -141.37,129.98 -223.08,403.56 -90.33,303.16 105.78,596.28 435.45,691.83 330.04,95.53 467,130.78 537.62,227.97 86,118.22 20.25,141.61 -4.43,625.57 -24.66,484.13 -119.97,951.36 518.79,1316.84 638.89,365.65 1753.23,43.99 2673.12,-523.07 788.99,-486.54 2751.76,-1120.51 4257.46,-300.93 -1060.36,1361.05 -2638.1,2318.87 -4484.73,2552.66 -3704.95,469.34 -7088.97,-2153.86 -7558.11,-5858.84 -327.7,-2588.14 853.76,-5019.32 2858.79,-6409.93z"/>
 </g>
</svg>
